<svg width="15" height="15" viewBox="0 0 15 15" fill="none" xmlns="http://www.w3.org/2000/svg">
<path fill-rule="evenodd" clip-rule="evenodd" d="M11.4 0.144531C10.185 0.144531 9.2 1.1295 9.2 2.34453V3.01281C8.73392 3.17755 8.4 3.62204 8.4 4.14453V6.14453C8.4 6.80727 8.93726 7.34453 9.6 7.34453H13.2C13.8627 7.34453 14.4 6.80727 14.4 6.14453V4.14453C14.4 3.62205 14.0661 3.17755 13.6 3.01281V2.34453C13.6 1.1295 12.615 0.144531 11.4 0.144531ZM12.4 2.34453V2.94453H10.4V2.34453C10.4 1.79225 10.8477 1.34453 11.4 1.34453C11.9523 1.34453 12.4 1.79225 12.4 2.34453ZM9.6 4.14453H9.8H13H13.2V6.14453L9.6 6.14453V4.14453ZM1.2 2.54453C1.2 2.43407 1.28954 2.34453 1.4 2.34453H7H7.2C7.53137 2.34453 7.8 2.0759 7.8 1.74453C7.8 1.41316 7.53137 1.14453 7.2 1.14453H7H1.4C0.626802 1.14453 0 1.77133 0 2.54453V10.5445C0 11.3177 0.626803 11.9445 1.4 11.9445H6.4V12.9445H4.2C3.86863 12.9445 3.6 13.2132 3.6 13.5445C3.6 13.8759 3.86863 14.1445 4.2 14.1445H7H9.8C10.1314 14.1445 10.4 13.8759 10.4 13.5445C10.4 13.2132 10.1314 12.9445 9.8 12.9445H7.6V11.9445H12.6C13.3732 11.9445 14 11.3177 14 10.5445V9.14453C14 8.81316 13.7314 8.54453 13.4 8.54453C13.0686 8.54453 12.8 8.81316 12.8 9.14453V10.5445C12.8 10.655 12.7105 10.7445 12.6 10.7445H7H1.4C1.28954 10.7445 1.2 10.655 1.2 10.5445V2.54453Z" fill="#F3652B"/>
</svg>
